<svg width="50" height="50" viewBox="0 0 50 50" fill="none" xmlns="http://www.w3.org/2000/svg">
<path d="M38.1691 14.7684C38.9502 13.9873 38.9502 12.721 38.1691 11.94L38.0601 11.8309C37.279 11.0498 36.0127 11.0498 35.2316 11.8309L26.4142 20.6483C25.6332 21.4293 24.3669 21.4293 23.5858 20.6483L14.7684 11.8309C13.9874 11.0498 12.721 11.0498 11.94 11.8309L11.8309 11.94C11.0499 12.721 11.0499 13.9873 11.8309 14.7684L20.6483 23.5858C21.4294 24.3668 21.4294 25.6332 20.6483 26.4142L11.8309 35.2316C11.0499 36.0127 11.0499 37.279 11.8309 38.0601L11.94 38.1691C12.721 38.9502 13.9874 38.9502 14.7684 38.1691L23.5858 29.3517C24.3669 28.5707 25.6332 28.5707 26.4142 29.3517L35.2316 38.1691C36.0127 38.9502 37.279 38.9502 38.0601 38.1691L38.1691 38.0601C38.9502 37.279 38.9502 36.0127 38.1691 35.2316L29.3517 26.4142C28.5707 25.6332 28.5707 24.3668 29.3517 23.5858L38.1691 14.7684Z" fill="#2A2A2A"/>
</svg>
