<svg width="23" height="23" viewBox="0 0 23 23" fill="none" xmlns="http://www.w3.org/2000/svg">
<path d="M11.5 1.91675C7.79125 1.91675 4.79166 4.91633 4.79166 8.62508C4.79166 13.6563 11.5 21.0834 11.5 21.0834C11.5 21.0834 18.2083 13.6563 18.2083 8.62508C18.2083 4.91633 15.2087 1.91675 11.5 1.91675ZM6.70833 8.62508C6.70833 5.98008 8.855 3.83341 11.5 3.83341C14.145 3.83341 16.2917 5.98008 16.2917 8.62508C16.2917 11.3851 13.5317 15.5155 11.5 18.0934C9.50667 15.5347 6.70833 11.3563 6.70833 8.62508Z" fill="#FFF1F1" fill-opacity="0.84"/>
<path d="M11.5 11.0209C12.8232 11.0209 13.8958 9.94826 13.8958 8.62508C13.8958 7.3019 12.8232 6.22925 11.5 6.22925C10.1768 6.22925 9.10417 7.3019 9.10417 8.62508C9.10417 9.94826 10.1768 11.0209 11.5 11.0209Z" fill="#FFF1F1" fill-opacity="0.84"/>
</svg>
