<svg width="37" height="23" viewBox="0 0 37 23" fill="none" xmlns="http://www.w3.org/2000/svg">
<path d="M18.4189 0.380142C17.9509 0.632619 17.6592 1.11271 17.6592 1.63487V9.76577H1.60457C0.793914 9.76577 0.135986 10.4084 0.135986 11.2003C0.135986 11.9922 0.793914 12.6348 1.60457 12.6348H17.6592V20.7657C17.6592 21.2898 17.9509 21.7699 18.4189 22.0205C18.8869 22.2748 19.4587 22.2576 19.911 21.9803L35.4506 12.4149C35.8775 12.1509 36.136 11.6938 36.136 11.2003C36.136 10.7068 35.8775 10.2497 35.4506 9.98573L19.911 0.420309C19.6721 0.274943 19.4 0.200348 19.1278 0.200348C18.885 0.200348 18.6402 0.261554 18.4189 0.380142Z" fill="#24272B"/>
</svg>
