<svg width="36" height="23" viewBox="0 0 36 23" fill="none" xmlns="http://www.w3.org/2000/svg">
<path d="M17.7171 22.0206C18.185 21.7681 18.4768 21.288 18.4768 20.7658V12.6349H34.5314C35.3421 12.6349 36 11.9923 36 11.2004C36 10.4085 35.3421 9.76587 34.5314 9.76587H18.4768V1.63498C18.4768 1.1109 18.185 0.630808 17.7171 0.380244C17.2491 0.125855 16.6773 0.143069 16.225 0.420411L0.685341 9.98583C0.258472 10.2498 0 10.7069 0 11.2004C0 11.6939 0.258472 12.151 0.685341 12.415L16.225 21.9804C16.4639 22.1258 16.736 22.2003 17.0082 22.2003C17.251 22.2003 17.4958 22.1391 17.7171 22.0206Z" fill="#24272B"/>
</svg>
