<svg width="156" height="30" viewBox="0 0 156 30" fill="none" xmlns="http://www.w3.org/2000/svg">
<g clip-path="url(#clip0_1_1163)">
<path fill-rule="evenodd" clip-rule="evenodd" d="M0.129784 5.96626C2.24625 5.95926 4.36245 5.95952 6.47891 5.93773C6.84078 5.9341 6.9173 6.0817 6.90044 6.39765C6.88072 6.76289 6.89577 7.1302 6.89577 7.51853C6.97515 7.50374 7.05063 7.51282 7.08825 7.47936C11.5622 3.51336 18.3808 5.09649 20.5126 10.7019C22.0314 14.6959 21.7452 18.5704 18.8586 21.9436C15.8135 25.5018 10.0239 25.672 7.13494 23.374C7.09006 23.3382 7.02469 23.3283 6.87424 23.2692C6.87424 25.4046 6.87424 27.4881 6.87424 29.5719C4.82496 29.5719 2.77569 29.5571 0.726669 29.5833C0.267008 29.589 0.113701 29.5215 0.114998 29.004C0.136269 21.3247 0.129784 13.6456 0.129784 5.96626ZM6.72534 15.0656C6.69655 17.272 8.22417 18.8645 10.4078 18.9039C12.4903 18.9416 14.1035 17.3958 14.1372 15.3304C14.1759 12.9418 12.7422 11.3395 10.536 11.3058C8.30303 11.2716 6.75517 12.7989 6.72534 15.0656Z" fill="#9B9B9B"/>
<path fill-rule="evenodd" clip-rule="evenodd" d="M155.771 24.3838C153.874 24.2585 151.975 24.3638 150.077 24.3296C149.883 24.3262 149.686 24.3091 149.494 24.3338C149.073 24.388 148.97 24.1898 148.999 23.8092C149.027 23.4487 149.005 23.0842 149.005 22.631C148.62 22.9506 148.31 23.237 147.972 23.4837C144.801 25.7945 139.771 25.2518 137.079 22.3151C133.713 18.6433 133.729 11.9662 137.038 8.25913C140.037 4.89857 145.776 4.4799 148.779 6.86951C148.822 6.90401 148.889 6.90816 149.005 6.94629C149.005 5.31881 149.03 3.72815 148.99 2.13931C148.978 1.65371 149.164 1.51831 149.585 1.43997C151.387 1.10456 153.184 0.743471 154.983 0.39276C155.086 0.372526 155.2 0.380827 155.253 0.259168C155.696 0.161114 155.785 0.333875 155.784 0.777972C155.766 8.64668 155.771 16.5151 155.771 24.3838ZM141.764 15.0874C141.762 17.3452 143.259 18.9174 145.42 18.9289C147.631 18.941 149.167 17.3789 149.176 15.1107C149.184 12.9032 147.645 11.3585 145.438 11.3595C143.255 11.3605 141.765 12.8721 141.764 15.0874Z" fill="#9B9B9B"/>
<path fill-rule="evenodd" clip-rule="evenodd" d="M108.606 5.30969C110.67 5.34134 112.404 5.63057 114.056 6.33796C117.946 8.0041 119.993 11.5551 119.654 15.7836C119.25 20.8393 115.81 23.7739 111.274 24.6287C108.58 25.1368 105.934 24.9275 103.399 23.8481C99.3938 22.1431 97.6286 18.74 97.8387 14.6448C98.1386 8.80462 102.396 6.06066 106.948 5.45262C107.588 5.36702 108.237 5.34056 108.606 5.30969ZM105.005 15.1203C105.005 17.3205 106.602 18.9358 108.744 18.9044C110.918 18.8725 112.427 17.3332 112.429 15.1452C112.431 12.864 110.908 11.2967 108.696 11.3055C106.519 11.3143 105.004 12.8793 105.005 15.1203Z" fill="#9B9B9B"/>
<path fill-rule="evenodd" clip-rule="evenodd" d="M33.5087 5.31304C36.3383 5.38334 38.9829 6.0225 41.2106 7.88475C43.0653 9.4352 44.0173 11.4624 44.2254 13.8453C44.463 16.5669 43.9618 19.099 42.1369 21.2351C40.5733 23.0652 38.5312 24.0725 36.2065 24.5599C33.4503 25.1378 30.7494 24.964 28.136 23.894C23.7993 22.1187 22.0818 18.3205 22.5017 14.0609C22.972 9.29434 26.3225 6.44792 30.7396 5.58619C31.6527 5.40798 32.5754 5.31044 33.5087 5.31304ZM33.3961 11.3057C31.1857 11.2881 29.6405 12.8326 29.5964 15.1042C29.5549 17.2388 31.1928 18.8984 33.3429 18.9C35.4822 18.9016 37.0454 17.334 37.0695 15.1636C37.0939 12.9519 35.5427 11.3229 33.3961 11.3057Z" fill="#9B9B9B"/>
<path fill-rule="evenodd" clip-rule="evenodd" d="M84.2121 7.43208C86.4414 5.25673 89.0629 4.90498 91.8759 5.65984C94.4266 6.3444 95.6232 8.25931 96.0971 10.7254C96.224 11.3851 96.2631 12.0518 96.2623 12.7236C96.2574 16.3763 96.2515 20.0286 96.2699 23.681C96.2725 24.1674 96.1752 24.3529 95.6393 24.3433C93.7814 24.3088 91.922 24.3134 90.0639 24.3412C89.561 24.3487 89.403 24.2185 89.4056 23.6953C89.4193 20.6489 89.397 17.6019 89.3786 14.5553C89.3768 14.2551 89.3431 13.9511 89.2868 13.6562C88.9719 12.0134 88.314 11.4668 86.7459 11.5257C85.237 11.5823 84.3151 12.4004 84.182 13.9073C84.0318 15.6095 84.1397 17.3197 84.1247 19.0263C84.1107 20.6037 84.1057 22.1817 84.1314 23.7588C84.1389 24.2195 83.9895 24.3448 83.5418 24.3394C81.6401 24.3179 79.7379 24.3194 77.8362 24.3389C77.4194 24.343 77.2899 24.2343 77.291 23.7988C77.306 18.0281 77.3073 12.2577 77.2897 6.48759C77.2884 6.00588 77.457 5.93066 77.8827 5.93533C79.7413 5.9566 81.6004 5.9649 83.4583 5.9317C84.0014 5.92184 84.1957 6.078 84.1311 6.61704C84.1021 6.86061 84.0655 7.1265 84.2121 7.43208Z" fill="#9B9B9B"/>
<path fill-rule="evenodd" clip-rule="evenodd" d="M54.7899 5.32971C57.048 5.40701 59.1079 5.58159 61.1372 6.05759C61.5636 6.15772 61.6453 6.28924 61.5387 6.70817C61.1932 8.0664 60.8689 9.43138 60.5898 10.8047C60.4856 11.3185 60.2977 11.3338 59.8529 11.2008C57.7504 10.5725 55.6158 10.1689 53.4059 10.491C53.2366 10.5157 53.07 10.5647 52.9053 10.6135C52.4999 10.7328 52.1829 10.9704 52.1875 11.4189C52.1925 11.8832 52.5525 12.0851 52.9523 12.1756C54.4052 12.5048 55.9019 12.5888 57.3476 12.9637C58.1221 13.1644 58.8827 13.4 59.6064 13.7442C61.6098 14.6967 62.5019 16.2555 62.4357 18.47C62.3574 21.0928 61.015 22.7776 58.6832 23.782C56.8036 24.5911 54.8062 24.7947 52.7943 24.8391C50.2765 24.8946 47.801 24.5602 45.3728 23.8746C44.9772 23.7628 44.8698 23.6386 44.9876 23.2144C45.3855 21.7807 45.7492 20.3369 46.0887 18.8881C46.1985 18.4202 46.3655 18.3865 46.7865 18.5486C49.0241 19.4095 51.3287 19.9143 53.7473 19.7338C54.0744 19.7091 54.3922 19.651 54.689 19.5182C55.0228 19.3693 55.2583 19.14 55.2544 18.7315C55.2506 18.3195 55.0104 18.1022 54.6643 17.9696C53.9107 17.6806 53.1105 17.6171 52.3209 17.5131C50.9481 17.3325 49.5909 17.0853 48.3009 16.5665C44.5723 15.0669 43.7967 10.2682 46.8534 7.62153C48.5326 6.16784 50.5829 5.69754 52.7107 5.46253C53.4609 5.38004 54.2184 5.36473 54.7899 5.32971Z" fill="#9B9B9B"/>
<path fill-rule="evenodd" clip-rule="evenodd" d="M63.6831 13.0396C63.6831 9.49434 63.694 5.94935 63.6709 2.4041C63.6675 1.91228 63.7993 1.7958 64.2792 1.80333C66.1594 1.83238 68.0408 1.83627 69.9207 1.80151C70.4372 1.79191 70.5279 1.97116 70.5134 2.42952C70.482 3.42303 70.5259 4.41862 70.494 5.41213C70.4794 5.85752 70.6442 5.95636 71.0545 5.95195C72.7622 5.93327 74.4701 5.95454 76.1777 5.93716C76.6275 5.93249 76.7692 6.00253 76.5178 6.45778C75.6309 8.06322 74.7619 9.67878 73.9038 11.3C73.7492 11.5919 73.5616 11.6897 73.2408 11.6798C72.5279 11.658 71.8122 11.7055 71.1015 11.6622C70.6112 11.6323 70.4895 11.7864 70.4921 12.2718C70.5132 16.0113 70.5038 19.7511 70.5036 23.4909C70.5036 24.3288 70.5033 24.329 69.6724 24.3293C67.8999 24.3293 66.1269 24.3075 64.355 24.3425C63.8229 24.3532 63.666 24.2232 63.6699 23.6748C63.6953 20.1301 63.6831 16.5848 63.6831 13.0396Z" fill="#9B9B9B"/>
<path fill-rule="evenodd" clip-rule="evenodd" d="M128.036 7.91329C129.59 5.82277 131.652 5.54547 133.874 5.71642C134.278 5.74729 134.473 5.90241 134.455 6.36207C134.388 8.10888 134.352 9.85699 134.321 11.6048C134.314 12.0191 134.184 12.1247 133.773 12.0186C132.996 11.8178 132.199 11.7558 131.396 11.824C129.154 12.0147 128.049 13.1976 128.04 15.4479C128.028 18.1701 128.022 20.8922 128.049 23.6139C128.054 24.1568 127.957 24.3602 127.353 24.3454C125.518 24.3002 123.681 24.3184 121.845 24.3368C121.427 24.341 121.236 24.2774 121.238 23.7856C121.255 18.0175 121.253 12.2492 121.241 6.48139C121.24 6.06505 121.346 5.92965 121.777 5.93457C123.699 5.95688 125.622 5.95636 127.545 5.93483C127.958 5.9299 128.07 6.06635 128.043 6.45338C128.013 6.88087 128.036 7.312 128.036 7.91329Z" fill="#9B9B9B"/>
</g>
<defs>
<clipPath id="clip0_1_1163">
<rect width="155.641" height="29.5718" fill="white"/>
</clipPath>
</defs>
</svg>
