<svg width="126" height="46" viewBox="0 0 126 46" fill="none" xmlns="http://www.w3.org/2000/svg">
<path d="M41.3969 40.0956L41.4115 39.8283C41.7936 36.494 48.8674 31.4 55.1599 27.4816C56.6729 26.5407 58.0286 25.7062 59.2344 24.966C59.8899 23.8848 60.2829 23.0649 60.5744 22.3719C60.6288 22.2461 60.6615 22.1215 60.6699 22.0369L60.6735 21.9909L60.659 21.8688L60.6397 21.8543H60.6288L60.497 21.9171C59.2622 22.8169 56.951 24.6189 55.5711 24.6298L55.3885 24.6202C54.8491 24.5669 54.2528 24.2017 54.2553 23.2898L54.271 23.0056C54.3665 22.1385 54.8854 21.4576 55.2748 20.9194L55.3679 20.7537V20.7489V20.7404L55.3619 20.7392H55.3522C55.3207 20.7392 55.253 20.7622 55.1321 20.8335C51.1628 23.1592 48.992 24.5053 47.9918 24.5149L47.9071 24.5101C47.5915 24.4787 47.3363 24.2295 47.3387 23.8437L47.346 23.7107C47.4197 23.0612 47.9785 22.2207 48.5239 21.4382C49.0706 20.663 49.6063 19.9313 49.6378 19.6048L49.639 19.5685L49.5253 19.4548L49.4878 19.4536C49.0694 19.4463 47.7523 20.1962 45.8899 21.6257C44.8631 22.4106 44.0092 23.1447 43.3537 23.6841C42.691 24.2211 42.2532 24.5694 41.9702 24.579L41.9146 24.5754C41.5784 24.5331 41.3474 24.1944 41.3437 23.9054L41.3498 23.799C41.4429 22.9996 42.4685 21.7769 43.4832 20.5892C44.4978 19.4125 45.5065 18.2611 45.5524 17.7568L45.5549 17.7133C45.5512 17.5742 45.4738 17.5379 45.3553 17.5198L45.3009 17.5161C44.8994 17.5125 44.0455 17.9503 42.2302 19.1089C36.2497 22.9125 34.5614 24.6322 33.5346 24.6504L33.4717 24.6468C33.0642 24.5972 32.6312 24.1436 32.6264 23.6006L32.6312 23.5002C32.7848 22.2219 35.4975 19.8926 36.8726 18.5066C37.3297 18.0555 37.6393 17.683 37.6418 17.5718L37.643 17.5645C37.6345 17.4049 37.5837 17.3819 37.4821 17.3626L37.4362 17.3613C36.6404 17.3577 32.451 19.1585 28.9522 20.7718C28.9861 21.3221 29.0079 21.951 29.0091 22.7081C29.0103 23.0576 28.9921 23.4023 28.9546 23.7397C28.252 30.0854 21.0875 34.0897 15.5122 34.1067C15.2437 34.1079 14.9764 34.0934 14.7176 34.0643C12.7898 33.8515 11.1632 32.8646 11.1523 31.4484L11.1608 31.2755C11.3373 29.7625 13.617 27.9399 16.3176 26.2178C19.0206 24.5016 22.153 22.9076 24.0396 21.9365C24.7411 21.5737 25.6784 21.1274 26.7463 20.6388C26.629 19.6652 26.4657 18.9033 26.4597 16.3757C26.4584 16.1459 26.4705 15.9161 26.4935 15.6863C25.884 16.0697 25.2708 16.4579 24.6564 16.8461C20.9605 19.1851 15.8024 22.7734 11.5163 26.2794C7.22779 29.7782 3.81366 33.2202 3.60806 35.1782L3.59718 35.3765C3.60081 35.7285 3.81608 35.8881 4.02168 35.9123L4.07126 35.9159C4.39296 35.9147 4.66024 35.8035 5.04604 35.512C5.18754 35.4068 5.30848 35.3596 5.4137 35.3693C5.53343 35.3802 5.60962 35.4866 5.6072 35.6003L5.60478 35.6366C5.58906 35.7635 5.50561 35.9026 5.43063 36.0139C5.14884 36.4118 4.31798 36.9814 3.42182 36.9875L3.17268 36.9742C2.25233 36.8762 1.52548 36.188 1.52548 35.1177L1.53878 34.865C1.76736 32.8586 4.526 29.9693 8.03568 27.0414C11.5466 24.1158 15.8121 21.1709 19.0606 19.1198C21.876 17.342 24.4605 15.7287 26.7838 14.2762C28.7103 7.93408 38.6153 2.39262 41.6678 2.37206L41.9605 2.38778C42.7454 2.4676 43.1518 2.94168 43.1482 3.54638L43.1445 3.62016C43.0151 4.63121 40.7197 6.42596 37.2874 8.76131C34.9109 10.3734 31.989 12.225 28.876 14.1867C28.7551 14.5785 28.6692 14.974 28.6257 15.3719C28.6027 15.5799 28.5918 15.7867 28.5918 15.9947C28.5967 17.5307 28.7478 18.4486 28.8676 19.6906C30.1169 19.1428 31.4387 18.5804 32.7147 18.0555C35.9667 16.7192 38.8826 15.6222 39.555 15.6162L39.6312 15.6198C39.9771 15.6573 40.3593 15.9536 40.3617 16.4216L40.3569 16.5099C40.2238 17.6093 37.9441 19.4996 36.7855 20.6751C36.3997 21.0585 36.1409 21.3814 36.1361 21.4987V21.5096L36.2292 21.616L36.2449 21.6172C36.4348 21.6257 37.2862 21.1395 38.2815 20.5082C39.2865 19.8769 40.4705 19.098 41.4296 18.5127C43.6307 17.1727 45.8112 16.0117 46.9094 16.0044L47.1234 16.0141C47.6749 16.0673 47.8902 16.4083 47.8842 16.7881L47.8721 17.0022C47.791 17.7205 47.2952 18.3905 45.9697 19.9579C45.7834 20.172 45.6262 20.3473 45.6202 20.4538L45.6189 20.4695L45.6806 20.5421L45.7 20.5433L45.7157 20.5372L45.7762 20.5106L45.9757 20.4042C46.1366 20.3123 46.3506 20.1829 46.5889 20.0377C47.0678 19.7451 47.6483 19.3822 48.1176 19.1029C49.1407 18.497 50.1324 17.9334 50.6767 17.9273L50.8363 17.9358C51.4011 17.9951 51.8111 18.4063 51.8123 18.9384L51.8074 19.0146C51.7554 19.4512 51.3309 20.0462 50.9113 20.6473C50.4916 21.2447 50.0768 21.8482 50.0405 22.2147L50.0369 22.2751C50.0478 22.4215 50.0647 22.4444 50.1965 22.4698L50.263 22.4723C50.5799 22.4795 51.8087 21.8107 53.0809 21.0524C54.3605 20.2929 55.7162 19.4439 56.3874 19.0799C59.4182 17.4327 60.8344 16.5692 62.9654 16.5631C63.1516 16.5631 63.3475 16.5728 63.5422 16.5946C64.0175 16.6466 64.4916 16.7651 64.8206 16.9828C65.0322 17.1195 65.0915 17.2755 65.0879 17.4109L65.0866 17.4351C65.0649 17.6008 64.8871 17.7084 64.6464 17.6891C63.1141 17.5742 61.3387 18.11 59.3638 19.4415C57.6392 20.6013 56.2193 22.0671 56.1359 22.9004L56.1323 22.9875C56.1371 23.1689 56.2084 23.2862 56.3874 23.3092L56.4382 23.3116C56.7696 23.3164 58.1362 22.7952 60.4607 20.7537C61.1428 20.1551 62.1659 18.9638 62.6739 18.3724C62.8928 18.1136 63.1286 18.1136 63.2181 18.1148L63.2689 18.1184C63.616 18.1668 63.7079 18.5647 63.7116 18.9444L63.6995 19.1392C63.6075 19.9579 62.9859 21.466 62.0474 23.2475C64.3017 21.8736 65.7591 20.9871 66.5343 20.455C68.8745 18.8525 71.0067 16.7554 74.0882 16.7445C74.3059 16.7433 74.5042 16.7542 74.6832 16.7748C75.7487 16.8957 76.1647 17.3166 76.1768 17.6165L76.172 17.7036C76.1575 17.8499 76.091 17.9612 75.9809 18.0193C75.8733 18.0761 75.7366 18.0834 75.5758 18.0664L75.3097 18.0193C75.1996 17.9951 75.0884 17.9781 74.9735 17.9648C73.6189 17.8149 71.9536 18.497 70.6124 19.427C69.2687 20.3534 68.2516 21.5362 68.1706 22.315L68.1658 22.4251C68.1718 22.6742 68.2649 22.7734 68.4572 22.8L68.5201 22.8048C69.5433 22.8109 72.3201 20.8771 74.1414 19.1307C74.711 18.5865 75.0219 18.5115 75.2492 18.5127L75.2915 18.5139C75.5842 18.5562 75.8104 18.8779 75.8188 19.1138L75.8176 19.1476C75.7777 19.4439 75.3653 19.9374 74.9517 20.4997C74.5369 21.0524 74.1221 21.6608 74.0809 22.0671L74.0761 22.1421C74.0834 22.3416 74.1547 22.3985 74.2841 22.419L74.3277 22.4215C74.7534 22.4336 76.4006 21.2556 78.1445 19.9362C79.9163 18.6034 81.6227 17.1642 82.9821 16.0564C84.3512 14.9498 85.3356 14.1734 85.7807 14.1601L85.927 14.1673C86.3866 14.2133 86.5571 14.5362 86.5511 14.8325L86.5498 14.8603C86.5039 15.1917 85.8508 16.0407 84.7273 17.7048C84.6487 17.8197 84.5906 17.9225 84.5834 17.9951V18.0301L84.6511 18.0979H84.6741C84.7938 18.1051 85.2715 17.8511 85.8339 17.596C86.4035 17.3396 87.0856 17.082 87.7072 17.0796L88.0047 17.0941C88.7679 17.1715 89.173 17.6335 89.1682 18.353L89.1549 18.5986C89.0291 19.7173 88.0955 20.7779 87.3589 21.5241L87.2356 21.6487L87.2126 21.6777V21.6801L87.2259 21.6825L87.2452 21.6837L87.4678 21.6124C87.9612 21.385 95.8477 16.7699 98.4926 16.7566L98.6354 16.7639C99.1336 16.8232 99.3537 17.1557 99.3574 17.3444L99.3562 17.394C99.3441 17.5089 99.2788 17.5718 99.2352 17.6165L99.1469 17.8052L99.1433 17.8765C99.1421 17.9975 99.234 18.0483 99.3731 18.1595C99.5061 18.2648 99.6525 18.4329 99.6513 18.7594L99.6464 18.8525C99.6162 19.1041 99.4928 19.3605 99.413 19.4802C101.625 18.0834 102.631 17.423 103.843 16.5111L103.849 16.4446C103.963 15.3876 104.616 14.8942 105.219 14.8942L105.328 14.899C105.737 14.9425 106.003 15.2642 106.002 15.6767L105.998 15.7407C105.953 16.0891 105.65 16.3817 105.628 16.6466L105.626 16.678C105.606 17.157 106.008 17.2694 106.481 17.4351C106.939 17.5887 107.456 17.8052 107.456 18.5018L107.449 18.5949C107.361 19.3061 106.434 19.8793 105.205 20.9375C104.379 21.6402 103.841 22.1518 103.787 22.6779L103.783 22.7807C103.778 23.0939 104.118 23.2801 104.301 23.2983L104.334 23.3007C104.841 23.2995 106.078 23.0987 108.469 22.0719C108.473 21.9438 108.481 21.8156 108.494 21.6886C108.892 18.2031 113.203 15.6706 114.593 15.6549C114.716 15.6549 114.832 15.6621 114.945 15.6742C116.095 15.8012 116.762 16.5583 116.765 17.244L116.756 17.4206C116.555 19.1198 113.754 20.8492 110.728 22.1977C110.498 22.3005 110.267 22.3985 110.036 22.4964C110.057 23.4591 110.761 24.1715 112.548 24.3734C112.866 24.4085 113.218 24.4266 113.605 24.4254C116.63 24.4182 121.142 23.1519 121.142 23.1519C123.226 22.5872 123.178 22.621 123.178 22.621C123.67 22.4856 124.114 22.6863 124.114 22.6863C124.29 22.7577 124.429 22.8847 124.434 23.0491L124.432 23.0794C124.348 23.6551 122.594 24.1557 122.594 24.1557C119.494 25.1221 116.687 25.4522 114.255 25.4595C113.723 25.4607 113.219 25.4353 112.75 25.3833C110.556 25.145 109.072 24.3287 108.617 23.0576C106.304 23.9223 104.177 24.4738 103.29 24.4774L102.996 24.4629C102.244 24.3843 101.631 23.9393 101.632 23.0661L101.644 22.8375C101.76 21.8023 102.634 20.9158 103.477 20.178C104.321 19.4488 105.144 18.8344 105.167 18.4861L105.169 18.4583C105.164 18.2115 105.05 18.1305 104.876 18.0289C104.711 17.937 104.497 17.8487 104.357 17.6322C103.858 17.6794 102 18.8029 99.7408 20.3546C98.4636 21.2217 94.879 24.3359 92.9149 24.3492L92.6839 24.3372C91.8942 24.2549 91.333 23.6889 91.3354 22.7734L91.35 22.4977C91.4503 21.5858 92.0381 20.8964 92.5013 20.374C92.6355 20.224 92.8835 19.9918 92.9355 19.9023L92.9415 19.895L92.9149 19.8757L92.9052 19.8745L92.5521 19.9821C88.705 21.7889 84.6523 24.5149 82.5238 24.527L82.3895 24.5198C81.9844 24.4799 81.4788 24.2029 81.4788 23.522L81.4837 23.4253C81.4933 23.3164 81.5369 23.2245 81.6252 23.1798C81.7098 23.1362 81.8138 23.1338 81.9517 23.1471C84.6039 23.4241 87.1521 19.756 87.2658 18.6107L87.2706 18.5272C87.2622 18.2926 87.1848 18.191 86.9768 18.162L86.9042 18.1595C86.3297 18.1547 84.3923 18.7848 82.0896 21.6547C81.5804 22.2461 73.2912 33.5322 73.2912 33.5322C72.4845 34.5529 72.1362 34.8783 71.6561 34.8892L71.598 34.8855C70.8603 34.7876 70.6148 34.1623 70.7212 33.6991C70.847 33.15 71.384 32.4837 71.6984 32.0688L83.6183 17.5415C83.975 16.9876 83.5239 17.1703 83.5239 17.1703C83.3074 17.238 82.4584 17.7798 81.9698 18.1777L79.0238 20.4647C75.9761 22.8508 74.4014 24.0408 72.8776 24.0481L72.7022 24.0396C71.9596 23.9574 71.7093 23.3418 71.7105 22.9282L71.7202 22.7444C71.742 22.5448 71.8024 22.3622 71.9004 22.1844L71.9415 22.0804L71.7903 22.159C69.9569 23.3394 68.4379 24.1908 67.3724 24.1969L67.1547 24.186C66.3347 24.0989 65.8897 23.4664 65.8933 22.6597L65.909 22.3767C65.9272 22.2062 65.9574 22.0659 65.9707 21.974V21.9716L65.9683 21.9691L65.9344 21.9571C65.9163 21.9534 65.8461 21.9691 65.7325 22.032C64.65 22.6271 63.102 23.5595 61.2057 24.7689C59.8753 27.0728 58.1616 29.6113 56.4419 31.6516C52.0481 36.8448 46.006 41.4393 42.9679 41.4574L42.6741 41.4417L42.6535 41.4393C42.0125 41.3691 41.3945 41.0039 41.3969 40.0956ZM53.3639 30.0141C48.039 33.7039 43.3005 38.3069 43.13 39.9977L43.124 40.0992C43.1324 40.404 43.2643 40.4996 43.459 40.5274L43.5255 40.531C44.06 40.5383 45.7907 39.5635 47.9579 37.8268C50.1324 36.0913 52.7701 33.5927 55.2095 30.5498C56.3669 29.1046 57.2727 27.894 57.9899 26.8672C56.558 27.819 55.0051 28.8736 53.3639 30.0141ZM19.2117 26.0061C16.0286 28.0077 13.097 30.2959 12.9434 31.8161L12.9349 31.9576C12.9434 32.6215 13.322 32.994 14.333 33.1138C14.5253 33.1343 14.743 33.1452 14.9825 33.1452C20.1635 33.1319 26.1694 29.621 26.8055 23.8038C26.843 23.4591 26.8612 23.106 26.8612 22.7468C26.86 22.367 26.8527 22.0466 26.8394 21.7648C25.5683 22.3779 22.2751 24.0735 19.2117 26.0061ZM39.9275 4.36998C39.2865 4.36393 36.5835 5.67976 34.0075 7.71518C32.3059 9.05398 30.649 10.706 29.6246 12.4959C33.8491 9.84251 36.95 7.83854 38.6722 6.45136C39.6542 5.66646 40.1803 5.0666 40.2117 4.71345L40.2141 4.6675C40.2081 4.48004 40.1307 4.39417 39.9747 4.37361L39.9275 4.36998ZM114.938 16.9949C114.486 16.9901 113.31 17.6286 112.244 18.5937C111.422 19.3339 110.654 20.2651 110.279 21.2411C113.686 19.5685 115.111 18.1837 115.196 17.3093L115.202 17.2102C115.197 17.0602 115.117 17.0167 114.99 16.9973L114.938 16.9949ZM97.9799 18.451C97.4139 18.445 96.2347 19.2057 95.2091 20.126C94.1787 21.0428 93.2862 22.1348 93.2281 22.7226L93.2245 22.7927C93.2257 22.9512 93.3418 23.1011 93.5111 23.1193L93.5486 23.1217C94.2465 23.1241 95.4401 22.4118 96.456 21.5277C97.4768 20.6461 98.327 19.5818 98.3923 18.9444L98.3971 18.8574C98.3947 18.6409 98.2605 18.48 98.0379 18.4534L97.9799 18.451Z" fill="#9B9B9B"/>
</svg>
