<svg width="107" height="41" viewBox="0 0 107 41" fill="none" xmlns="http://www.w3.org/2000/svg">
<g clip-path="url(#clip0_1_1161)">
<path fill-rule="evenodd" clip-rule="evenodd" d="M70.6871 16.8729H74.3184V13.2873H70.6871V16.8729ZM70.6871 33.7458H74.3184V18.2789H70.6871V33.7458ZM99.2393 30.5097C96.5404 30.5097 95.9933 29.525 95.9933 25.9084C95.9933 22.2906 96.5404 21.1797 99.2393 21.1797C102.357 21.1797 103.193 22.0374 103.193 25.9084C103.193 29.779 102.357 30.5097 99.2393 30.5097ZM103.513 18.2786V19.4984C102.294 18.4202 100.301 18.0068 98.6291 18.0068C93.2298 18.0068 92.3626 21.2119 92.3626 25.9084C92.3626 29.6212 92.7166 33.7458 98.6613 33.7458C100.172 33.7458 102.035 33.3966 103.161 32.3807C103.161 33.1744 103.193 34.2912 103.097 35.0843C102.903 36.5437 101.393 37.1781 99.3041 37.1781C97.2791 37.1781 96.6391 36.6144 96.6391 35.5035H92.6841C92.6841 39.4393 96.251 40.225 99.3998 40.225C102.294 40.225 106.086 39.4636 106.664 35.7825C106.792 34.9251 106.792 33.5238 106.792 32.0957V18.2786H103.513H103.513ZM84.3555 18.0068C82.1384 18.0068 80.7246 18.705 79.8241 19.4984V18.2786H76.6747V33.7458H80.3059V26.5426C80.3059 23.8459 80.0172 21.1797 83.9375 21.1797C87.0883 21.1797 86.7982 22.608 86.7982 25.5907V33.7458H90.4304V25.305C90.4304 21.9421 90.6876 18.0068 84.3555 18.0068ZM63.8681 18.0068C62.0354 18.0068 60.5897 18.5782 59.5608 19.6579V18.2786H56.4119V33.7458H60.0433V27.0188C60.0433 25.8132 59.9793 24.0996 60.3978 22.989C60.7824 21.9421 61.7151 21.1487 63.2253 21.1487C64.7366 21.1487 65.3354 21.4659 65.3354 22.894H68.9457C68.9457 19.4984 67.2431 18.0068 63.8681 18.0068ZM47.6211 30.7631C44.5032 30.7631 43.6031 29.9065 43.6031 26.0354C43.6031 22.1628 44.5032 21.3069 47.6211 21.3069C50.3205 21.3069 50.8985 22.4176 50.8985 26.0354C50.8985 29.6527 50.3205 30.7631 47.6211 30.7631ZM48.4239 18.0068C46.721 18.0068 44.8563 18.1978 43.6674 19.4039V13.2769H40.036V33.7458H43.3132V32.5082C44.2776 33.3641 45.7572 33.9988 47.8457 33.9988C54.1122 33.9988 54.5294 29.811 54.5294 26.0354C54.5294 21.3387 53.7911 18.0068 48.4239 18.0068Z" fill="#9B9B9B"/>
<path fill-rule="evenodd" clip-rule="evenodd" d="M10.3071 26.3638C5.63122 26.3638 1.80037 22.8033 1.43713 18.2789H0C0.37429 27.6597 8.19072 35.1521 17.7837 35.1521C24.0854 35.1521 29.621 31.9185 32.7834 27.0401C34.4348 24.4928 35.4391 21.497 35.5676 18.2789H19.1768C18.8136 22.8033 14.9828 26.3638 10.3071 26.3638Z" fill="#C1C1C1"/>
<path fill-rule="evenodd" clip-rule="evenodd" d="M1.43713 16.8727C1.80037 12.3483 5.63122 8.78776 10.3071 8.78776C14.9828 8.78776 18.8136 12.3483 19.1768 16.8727H35.5676C35.1928 7.49188 27.3761 0 17.7837 0C8.19097 0 0.374544 7.49188 0 16.8727H1.43713Z" fill="#9B9B9B"/>
</g>
<defs>
<clipPath id="clip0_1_1161">
<rect width="106.792" height="40.2251" fill="white"/>
</clipPath>
</defs>
</svg>
