<svg width="153" height="32" viewBox="0 0 153 32" fill="none" xmlns="http://www.w3.org/2000/svg">
<g clip-path="url(#clip0_1_1154)">
<path fill-rule="evenodd" clip-rule="evenodd" d="M94.3773 10.4592H101.347V8.30361H91.866V4.05835H88.7943V8.30361H79.3281V10.4592H85.6135C84.4125 15.0887 81.974 18.8802 78.9788 21.2004V23.7037C83.6518 21.1894 86.9819 17.0942 88.707 10.4592H88.7943V20.8491H84.0631V23.0047H88.7943V27.3524H91.866V23.0047H96.5973V20.8491H91.866V10.4592H92.0589C93.7767 17.1199 97.1032 21.5261 101.678 23.7695V20.4758C98.7883 18.6862 95.9495 15.5572 94.3773 10.4592Z" fill="#646464"/>
<path fill-rule="evenodd" clip-rule="evenodd" d="M73.084 14.945H60.0875V7.38042H73.084V14.945ZM73.084 24.969H60.0875V17.1006H73.084V24.969ZM76.1557 5.21753H57.0195V27.1209H76.1557V5.21753Z" fill="#646464"/>
<path fill-rule="evenodd" clip-rule="evenodd" d="M135.74 4.51685H132.869C132.308 9.90028 130.834 13.2636 129.004 14.9251V17.3222C130.012 16.8135 130.893 16.173 131.668 15.3898V27.3534H134.386V10.7969C135.001 9.06952 135.442 6.99813 135.74 4.51685Z" fill="#646464"/>
<path fill-rule="evenodd" clip-rule="evenodd" d="M139.187 15.6108H142.666V18.2568H139.187V15.6108ZM139.187 11.0984H142.666V13.748H139.187V11.0984ZM145.432 11.0984H148.948V13.748H145.432V11.0984ZM148.948 18.2568H145.432V15.6108H148.948V18.2568ZM152.511 24.4344C149.021 24.4088 146.207 24.0647 144.005 23.4609C144.675 22.5972 145.13 21.5212 145.323 20.1854H151.576V9.16973H145.432V7.11663H151.99V5.15137H136.545V7.11663H142.666V9.16973H136.559V20.1854H142.535C142.35 21.0711 141.96 21.847 141.374 22.513C140.381 22.0263 139.591 21.4663 138.998 20.8405H136.919C137.629 21.997 138.561 23.0034 139.726 23.8342C138.652 24.4527 137.28 24.9028 135.635 25.1736V27.1316C138.219 26.6961 140.402 26.1252 142.044 25.1444C144.744 26.3557 148.245 26.9742 152.511 26.9742V24.4344Z" fill="#646464"/>
<path fill-rule="evenodd" clip-rule="evenodd" d="M112.215 11.3791H113.805V14.2008H112.215V11.3791ZM113.805 19.2512H112.215V16.199H113.805V19.2512ZM109.587 19.2512H107.956V16.199H109.587V19.2512ZM107.956 11.3791H109.587V14.2008H107.956V11.3791ZM117.594 4.85754H113.638C112.466 5.76515 110.671 6.02133 105.038 6.02133V7.84753C106.814 7.84753 108.309 7.82923 109.587 7.78165V9.48707H104.655V11.3791H105.667V14.2008H104.273V16.199H105.667V19.2512H104.655V21.1432H109.587V23.6465C107.956 23.7856 106.297 23.8844 104.641 23.9393V26.5633C109.463 26.1644 113.543 25.5971 117.186 24.8579V22.8194C115.621 23.0317 113.947 23.2293 112.215 23.4086V21.1432H117.106V19.2512H116.083V16.199H117.437V14.2008H116.083V11.3791H117.106V9.48707H112.215V7.59501C115.29 7.25831 116.491 6.48611 117.594 4.85754Z" fill="#646464"/>
<path fill-rule="evenodd" clip-rule="evenodd" d="M124.402 14.2993C126.647 8.98177 126.669 8.51699 126.669 7.40443V5.38062H118.044V27.3535H120.672V7.40443H123.896C123.838 8.5609 123.67 9.38068 121.993 14.3798C123.801 17.0368 124.194 18.2006 124.194 19.7486C124.194 21.2198 123.907 22.1384 122.499 22.1384H121.792V24.7917H122.651C125.832 24.7917 126.873 23.4815 126.873 20.2207C126.873 18.1823 126.062 16.2573 124.402 14.2993Z" fill="#646464"/>
<path fill-rule="evenodd" clip-rule="evenodd" d="M13.1627 28.7836C13.159 27.854 13.6176 26.5365 14.7494 26.5365C15.5065 26.5365 15.7685 27.1184 15.7758 27.8138C15.7794 28.736 15.3208 30.0498 14.1926 30.0498C13.432 30.0498 13.1699 29.4753 13.1627 28.7836ZM11.6632 28.897C11.6668 30.0242 12.3292 31.1404 14.1089 31.1404C16.2089 31.1404 17.2898 29.7754 17.2752 27.693C17.2643 26.5621 16.6092 25.4532 14.8332 25.4532C12.7259 25.4532 11.6486 26.8147 11.6632 28.897ZM2.73309 28.0807H2.34003L2.64211 26.5875H3.07156C3.46098 26.5875 3.82493 26.6936 3.82857 27.2243C3.83585 27.8794 3.30813 28.0807 2.73309 28.0807ZM2.86775 25.5482H1.41197L0.272827 31.045H1.73225L2.12531 29.1237H2.87139C4.18523 29.1237 5.29526 28.4283 5.28435 27.056C5.27343 25.6726 4.06513 25.5482 2.86775 25.5482ZM28.2874 26.789C28.0072 26.6609 27.6214 26.5365 27.0791 26.5365C26.5041 26.5365 26.0346 26.6207 26.0346 27.0635C26.0375 27.3796 26.3881 27.52 26.8044 27.6867C27.4149 27.9311 28.1666 28.2321 28.1709 29.2264C28.1782 30.7415 26.7843 31.1404 25.5141 31.1404C24.9464 31.1404 24.2986 31.0014 23.8218 30.8513L24.1566 29.7388C24.4478 29.9218 25.0264 30.0498 25.5068 30.0498C25.9618 30.0498 26.6751 29.962 26.6715 29.3984C26.6699 29.0172 26.2746 28.8611 25.8243 28.6833C25.2282 28.4478 24.5356 28.1743 24.5315 27.2904C24.5242 25.8778 25.758 25.4532 26.9554 25.4532C27.6323 25.4532 28.2619 25.5228 28.6331 25.6984L28.2874 26.789ZM35.1572 26.6303H36.9697L36.0671 31.0439H37.5484L38.4473 26.6303H40.0668L40.2925 25.547H35.3829L35.1572 26.6303Z" fill="#646464"/>
<path fill-rule="evenodd" clip-rule="evenodd" d="M39.3612 6.56106C39.0882 8.50071 37.5669 9.3827 34.8774 9.37904H31.2998L32.4972 3.615H36.1475C38.8699 3.615 39.5759 4.98739 39.3612 6.56106ZM37.6761 0.273682H27.9988L25.1164 14.2538C24.1192 19.0882 21.062 20.3545 17.3607 20.3545C13.9979 20.3545 10.8024 18.5795 11.6286 14.2538C11.8106 13.3169 11.8797 12.9619 12.0362 12.1641H16.3926C16.3053 12.5813 16.1451 13.2803 15.9377 14.2538C15.6283 15.736 16.2725 16.6728 17.9175 16.6728C19.5589 16.6728 20.4033 15.7872 20.709 14.2538L23.5987 0.273682H13.441C7.99277 0.273682 6.35138 1.64241 5.36873 6.43297L2.10779 22.177H21.7644C26.6085 22.177 29.2399 19.381 29.9277 16.0141C30.5974 12.7716 30.601 12.7716 30.601 12.7716H35.3942C40.2492 12.7716 43.1717 10.7221 43.8595 6.56106C44.5001 2.68543 41.7123 0.273682 37.6761 0.273682Z" fill="#646464"/>
</g>
<defs>
<clipPath id="clip0_1_1154">
<rect width="152.785" height="31.4138" fill="white"/>
</clipPath>
</defs>
</svg>
