<svg width="76" height="55" viewBox="0 0 76 55" fill="none" xmlns="http://www.w3.org/2000/svg">
<g clip-path="url(#clip0_1_1155)">
<path d="M37.2618 8.23668H38.5703C38.5218 8.20228 38.4804 8.16154 38.4348 8.11666C38.4307 8.11261 38.4265 8.10852 38.4223 8.1044C38.4201 8.10217 38.4178 8.09993 38.4155 8.09768C38.1885 7.86959 38.2258 7.60974 38.3184 7.51652C38.4109 7.42331 38.6695 7.5322 38.8965 7.75987C38.9541 7.81556 39.0027 7.87371 39.0438 7.93187V6.31874C39.0014 6.37615 38.9548 6.43033 38.9043 6.48084C38.6773 6.70893 38.4188 6.81699 38.3254 6.72419C38.2329 6.63097 38.3408 6.3703 38.5678 6.14345C38.6238 6.08735 38.6765 6.03827 38.7321 5.99744H37.136C37.1883 6.0358 37.2431 6.08364 37.2941 6.13561C37.5211 6.36205 37.629 6.62314 37.5365 6.71635C37.4435 6.80957 37.185 6.70068 36.958 6.473C36.9046 6.42066 36.8556 6.36411 36.8115 6.30389V7.91083C36.8509 7.85721 36.8978 7.80442 36.9501 7.75204C37.1771 7.52395 37.4357 7.41588 37.5286 7.50827C37.6216 7.60149 37.6585 7.86134 37.4319 8.08943C37.3796 8.14333 37.3227 8.1926 37.2618 8.23668Z" fill="#646464" fill-opacity="0.7"/>
<path d="M36.5982 9.99994C36.7227 10.6137 37.2638 11.0773 37.9121 11.0773C38.5611 11.0773 39.1027 10.6145 39.2268 9.99994H36.5982Z" fill="#646464" fill-opacity="0.7"/>
<path d="M39.226 9.45838C39.1731 9.19953 39.0448 8.96186 38.857 8.77498C38.6692 8.5881 38.4302 8.46028 38.1698 8.40743V9.45838H39.226Z" fill="#646464" fill-opacity="0.7"/>
<path d="M37.6402 8.41115C37.3826 8.46543 37.1466 8.59355 36.9614 8.77966C36.7762 8.96577 36.6499 9.20173 36.5982 9.45838H37.6402V8.41115Z" fill="#646464" fill-opacity="0.7"/>
<path d="M37.507 11.6535C37.5067 11.5464 37.5492 11.4435 37.6251 11.3674C37.7011 11.2914 37.8043 11.2485 37.9121 11.248C38.1358 11.248 38.3175 11.4299 38.3175 11.6535C38.318 11.7608 38.2755 11.864 38.1995 11.9402C38.1235 12.0165 38.0201 12.0596 37.9121 12.0602C37.8586 12.06 37.8057 12.0493 37.7564 12.0287C37.7071 12.0081 37.6623 11.9781 37.6247 11.9403C37.5871 11.9025 37.5573 11.8578 37.5371 11.8085C37.5169 11.7593 37.5067 11.7066 37.507 11.6535Z" fill="#646464" fill-opacity="0.7"/>
<path d="M37.507 12.6727C37.5067 12.5655 37.5492 12.4627 37.6251 12.3866C37.7011 12.3106 37.8043 12.2677 37.9121 12.2672C38.1358 12.2672 38.3175 12.4491 38.3175 12.6727C38.3178 12.7258 38.3075 12.7785 38.2873 12.8277C38.2671 12.8769 38.2372 12.9217 38.1996 12.9594C38.1619 12.9971 38.1171 13.0271 38.0678 13.0476C38.0185 13.0681 37.9656 13.0788 37.9121 13.0789C37.8586 13.0787 37.8058 13.068 37.7565 13.0475C37.7072 13.027 37.6624 12.997 37.6248 12.9592C37.5872 12.9215 37.5574 12.8768 37.5372 12.8276C37.517 12.7784 37.5068 12.7258 37.507 12.6727Z" fill="#646464" fill-opacity="0.7"/>
<path d="M37.507 13.6931C37.5067 13.6399 37.5169 13.5873 37.5371 13.538C37.5573 13.4888 37.5871 13.444 37.6247 13.4063C37.6623 13.3685 37.7071 13.3385 37.7564 13.3179C37.8057 13.2973 37.8586 13.2866 37.9121 13.2864C38.1358 13.2864 38.3175 13.4683 38.3175 13.6931C38.3177 13.8003 38.2752 13.9031 38.1992 13.9792C38.1232 14.0552 38.0199 14.0981 37.9121 14.0985C37.8043 14.0981 37.7011 14.0552 37.6251 13.9791C37.5492 13.9031 37.5067 13.8002 37.507 13.6931Z" fill="#646464" fill-opacity="0.7"/>
<path d="M37.507 14.7123C37.5067 14.6591 37.5169 14.6064 37.5371 14.5572C37.5573 14.508 37.5871 14.4632 37.6247 14.4254C37.6623 14.3877 37.7071 14.3576 37.7564 14.3371C37.8057 14.3165 37.8586 14.3058 37.9121 14.3056C38.1358 14.3056 38.3175 14.4871 38.3175 14.7123C38.3177 14.7654 38.3073 14.818 38.287 14.8671C38.2668 14.9162 38.2369 14.9608 38.1993 14.9985C38.1616 15.0361 38.1169 15.066 38.0676 15.0865C38.0183 15.107 37.9655 15.1176 37.9121 15.1177C37.8587 15.1176 37.8059 15.1069 37.7566 15.0865C37.7073 15.066 37.6626 15.0361 37.625 14.9984C37.5874 14.9608 37.5576 14.9161 37.5374 14.867C37.5171 14.8179 37.5068 14.7653 37.507 14.7123Z" fill="#646464" fill-opacity="0.7"/>
<path d="M37.4655 16.9804C37.4655 16.7329 37.6651 16.5337 37.9121 16.5337C38.159 16.5337 38.3586 16.7329 38.3586 16.9804C38.3586 17.2283 38.1586 17.4287 37.9121 17.4287C37.6656 17.4287 37.4655 17.2283 37.4655 16.9804Z" fill="#646464" fill-opacity="0.7"/>
<path d="M44.6405 18.2768C44.7969 18.3295 44.997 18.1563 45.0862 17.889C45.1763 17.6226 45.1211 17.3627 44.9646 17.3104C44.8073 17.258 44.6073 17.4308 44.5181 17.6972C44.428 17.9645 44.4832 18.2231 44.6405 18.2768Z" fill="#646464" fill-opacity="0.7"/>
<path d="M31.1837 18.2768C31.0264 18.3295 30.8272 18.1563 30.7371 17.889C30.6479 17.6226 30.7027 17.3627 30.8595 17.3104C31.0168 17.258 31.2164 17.4308 31.3057 17.6972C31.3957 17.9645 31.3409 18.2231 31.1837 18.2768Z" fill="#646464" fill-opacity="0.7"/>
<path d="M39.4156 10.6203C39.4151 10.463 39.4773 10.3119 39.5887 10.2001C39.7002 10.0884 39.8516 10.0251 40.0099 10.0243C40.3373 10.0243 40.6025 10.2915 40.6025 10.6203C40.6025 10.949 40.3373 11.215 40.0099 11.215C39.9316 11.2148 39.8541 11.1993 39.7818 11.1692C39.7095 11.1392 39.6439 11.0953 39.5887 11.0401C39.5335 10.9849 39.4898 10.9194 39.4601 10.8473C39.4304 10.7753 39.4153 10.6981 39.4156 10.6203Z" fill="#646464" fill-opacity="0.7"/>
<path d="M40.8017 10.0197C40.8017 9.69059 41.0669 9.42456 41.3943 9.42456C41.7218 9.42456 41.9886 9.69101 41.9886 10.0197C41.9886 10.3493 41.7218 10.6157 41.3943 10.6157C41.0669 10.6157 40.8017 10.3493 40.8017 10.0197Z" fill="#646464" fill-opacity="0.7"/>
<path d="M42.2248 9.50994C42.2248 9.18038 42.4899 8.91393 42.8182 8.91393C43.1457 8.91393 43.4117 9.18038 43.4117 9.50994C43.4117 9.83867 43.1457 10.1051 42.8182 10.1051C42.7399 10.1048 42.6624 10.0892 42.5902 10.0592C42.518 10.0291 42.4524 9.98515 42.3973 9.92986C42.3422 9.87458 42.2985 9.80903 42.2689 9.73698C42.2393 9.66492 42.2243 9.58777 42.2248 9.50994Z" fill="#646464" fill-opacity="0.7"/>
<path d="M43.7246 9.45838C43.7246 9.12965 43.9906 8.86238 44.318 8.86238C44.6455 8.86238 44.9115 9.12965 44.9115 9.45838C44.9115 9.78752 44.6455 10.0544 44.318 10.0544C43.9906 10.0544 43.7246 9.78752 43.7246 9.45838Z" fill="#646464" fill-opacity="0.7"/>
<path d="M45.0974 10.0457C45.0974 9.71699 45.3626 9.44972 45.6909 9.44972C46.0183 9.44972 46.2835 9.71699 46.2835 10.0457C46.2835 10.3745 46.0183 10.6409 45.6909 10.6409C45.3626 10.6409 45.0974 10.3749 45.0974 10.0457Z" fill="#646464" fill-opacity="0.7"/>
<path d="M46.059 11.2229C46.059 10.8929 46.3241 10.6269 46.6516 10.6269C46.979 10.6269 47.2459 10.8933 47.2459 11.2229C47.2459 11.5512 46.979 11.8181 46.6516 11.8181C46.3241 11.8181 46.059 11.5516 46.059 11.2229Z" fill="#646464" fill-opacity="0.7"/>
<path d="M46.4088 12.6747C46.4088 12.346 46.674 12.0787 47.0014 12.0787C47.3305 12.0787 47.5949 12.346 47.5949 12.6747C47.5949 13.0039 47.3305 13.2699 47.0014 13.2699C46.9232 13.2695 46.8458 13.2538 46.7737 13.2237C46.7015 13.1936 46.6361 13.1496 46.581 13.0944C46.526 13.0391 46.4825 12.9736 46.4529 12.9016C46.4234 12.8296 46.4084 12.7525 46.4088 12.6747Z" fill="#646464" fill-opacity="0.7"/>
<path d="M46.3304 14.1654C46.3304 13.8366 46.5956 13.5706 46.923 13.5706C47.2504 13.5706 47.5173 13.837 47.5173 14.1654C47.5173 14.4937 47.2504 14.7614 46.923 14.7614C46.5956 14.7614 46.3304 14.4941 46.3304 14.1654Z" fill="#646464" fill-opacity="0.7"/>
<path d="M45.9386 15.5921C45.9386 15.2633 46.2038 14.9973 46.5321 14.9973C46.8595 14.9973 47.1247 15.2633 47.1247 15.5921C47.1247 15.9208 46.8595 16.1881 46.5321 16.1881C46.2038 16.1881 45.9386 15.9208 45.9386 15.5921Z" fill="#646464" fill-opacity="0.7"/>
<path d="M35.2254 10.6203C35.2254 10.2915 35.4905 10.0243 35.818 10.0243C36.1454 10.0243 36.4114 10.2915 36.4114 10.6203C36.4114 10.949 36.1454 11.215 35.818 11.215C35.4905 11.215 35.2254 10.949 35.2254 10.6203Z" fill="#646464" fill-opacity="0.7"/>
<path d="M33.8388 10.0197C33.8388 9.69059 34.1053 9.42456 34.4327 9.42456C34.7601 9.42456 35.0253 9.69101 35.0253 10.0197C35.0253 10.3493 34.7601 10.6157 34.4327 10.6157C34.3543 10.6154 34.2768 10.5996 34.2046 10.5695C34.1323 10.5393 34.0667 10.4953 34.0116 10.44C33.9564 10.3846 33.9128 10.319 33.8832 10.2469C33.8535 10.1748 33.8385 10.0976 33.8388 10.0197Z" fill="#646464" fill-opacity="0.7"/>
<path d="M32.4158 9.50994C32.4158 9.18038 32.681 8.91393 33.0084 8.91393C33.3371 8.91393 33.6023 9.18038 33.6023 9.50994C33.6023 9.83867 33.3371 10.1051 33.0084 10.1051C32.9302 10.1047 32.8528 10.089 32.7806 10.0589C32.7085 10.0288 32.6431 9.98485 32.588 9.92957C32.533 9.8743 32.4894 9.80879 32.4599 9.73679C32.4303 9.66478 32.4154 9.5877 32.4158 9.50994Z" fill="#646464" fill-opacity="0.7"/>
<path d="M30.9164 9.45838C30.9164 9.12965 31.1816 8.86238 31.509 8.86238C31.8365 8.86238 32.1025 9.12965 32.1025 9.45838C32.1025 9.78752 31.836 10.0544 31.509 10.0544C31.4307 10.054 31.3533 10.0382 31.2811 10.008C31.209 9.97781 31.1435 9.93378 31.0885 9.87843C31.0334 9.82308 30.9899 9.75749 30.9604 9.68542C30.9309 9.61334 30.9159 9.5362 30.9164 9.45838Z" fill="#646464" fill-opacity="0.7"/>
<path d="M29.5436 10.0457C29.5436 9.71699 29.8088 9.44972 30.1362 9.44972C30.4636 9.44972 30.7297 9.71699 30.7297 10.0457C30.7297 10.3745 30.4632 10.6409 30.1362 10.6409C30.058 10.6405 29.9806 10.6248 29.9084 10.5947C29.8363 10.5646 29.7708 10.5206 29.7158 10.4654C29.6608 10.4101 29.6172 10.3446 29.5877 10.2726C29.5581 10.2006 29.5431 10.1235 29.5436 10.0457Z" fill="#646464" fill-opacity="0.7"/>
<path d="M28.582 11.2229C28.582 10.8929 28.8485 10.6269 29.1755 10.6269C29.5033 10.6269 29.7685 10.8933 29.7685 11.2229C29.7685 11.5512 29.5033 11.8181 29.1755 11.8181C28.8485 11.8181 28.582 11.5516 28.582 11.2229Z" fill="#646464" fill-opacity="0.7"/>
<path d="M28.2318 12.6747C28.2318 12.346 28.4969 12.0787 28.824 12.0787C29.1526 12.0787 29.4178 12.346 29.4178 12.6747C29.4178 13.0039 29.1526 13.2699 28.824 13.2699C28.7457 13.2695 28.6684 13.2538 28.5963 13.2237C28.5241 13.1936 28.4587 13.1496 28.4037 13.0943C28.3487 13.0391 28.3052 12.9736 28.2757 12.9016C28.2462 12.8296 28.2313 12.7525 28.2318 12.6747Z" fill="#646464" fill-opacity="0.7"/>
<path d="M28.3102 14.1654C28.3102 13.8366 28.5754 13.5706 28.9041 13.5706C29.2315 13.5706 29.4967 13.837 29.4967 14.1654C29.4967 14.4937 29.2315 14.7614 28.9041 14.7614C28.8257 14.761 28.7482 14.7453 28.6759 14.7151C28.6037 14.685 28.5381 14.6409 28.4829 14.5856C28.4278 14.5303 28.3841 14.4647 28.3545 14.3926C28.3249 14.3205 28.3098 14.2433 28.3102 14.1654Z" fill="#646464" fill-opacity="0.7"/>
<path d="M28.702 15.5921C28.702 15.2633 28.9671 14.9973 29.2946 14.9973C29.6233 14.9973 29.8884 15.2633 29.8884 15.5921C29.8884 15.9208 29.6233 16.1881 29.2946 16.1881C29.1365 16.1871 28.9853 16.1237 28.8741 16.012C28.763 15.9002 28.7011 15.7492 28.702 15.5921Z" fill="#646464" fill-opacity="0.7"/>
<path fill-rule="evenodd" clip-rule="evenodd" d="M31.9838 16.0874L31.231 16.0887C31.0534 16.6112 30.9538 16.9742 31.109 17.0616C31.3945 17.225 31.614 16.6979 31.6622 16.5543C31.8435 17.0814 32.2154 18.3163 32.2154 18.3163C32.1681 18.2983 32.118 18.2762 32.067 18.2537C31.8353 18.1516 31.5852 18.0413 31.4995 18.2681C31.4103 18.5069 31.675 18.7086 32.0527 18.8426C32.8341 19.1194 33.6733 18.5935 33.8347 18.0577L34.7311 17.9889C35.1797 18.688 35.6184 18.9577 36.2566 18.9577C36.8949 18.9577 37.5651 18.3526 37.5149 17.809C37.4581 17.1866 36.8385 17.272 36.4019 18.0153V16.0866L36.4015 16.0866V15.9781C36.4304 16.0159 36.461 16.0524 36.4932 16.0874L36.494 16.0874C36.5245 16.1203 36.556 16.1522 36.5886 16.1831C36.892 16.4702 37.2381 16.6071 37.3626 16.49C37.4402 16.4161 37.4141 16.2627 37.3103 16.0862V16.0866H37.3091C37.2461 15.9795 37.1536 15.8656 37.0397 15.7575C36.9646 15.6861 36.8945 15.6238 36.8181 15.5735H39.0085C38.9326 15.6238 38.8628 15.6865 38.7873 15.7575C38.6725 15.8662 38.5801 15.9819 38.517 16.087H38.5167C38.413 16.2623 38.3868 16.4157 38.464 16.4896C38.5889 16.6067 38.9351 16.4698 39.238 16.1827C39.2707 16.1522 39.3021 16.1204 39.3323 16.0874H39.3339C39.3671 16.0515 39.3974 16.0152 39.4256 15.9781V16.0874L39.426 16.0874V18.0148C38.9898 17.2716 38.3698 17.1862 38.313 17.8086C38.2628 18.3522 38.933 18.9573 39.5708 18.9573C40.2095 18.9573 40.6482 18.6871 41.0964 17.9884L41.9919 18.0573C42.155 18.5931 42.9938 19.119 43.7752 18.8422C44.1529 18.7082 44.418 18.5065 44.3288 18.2677C44.2418 18.0407 43.9923 18.1509 43.7609 18.2531C43.7098 18.2757 43.6595 18.2979 43.6121 18.3159C43.6121 18.3159 43.984 17.081 44.1657 16.5539C44.2134 16.6974 44.4334 17.2246 44.7193 17.0612C44.8741 16.9734 44.7745 16.6104 44.5969 16.0858H44.5958C44.5563 15.9716 44.5143 15.8498 44.4712 15.722L45.4294 16.0132C45.4294 16.0132 46.1727 14.9936 46.2432 13.2245C46.3486 10.6009 44.5475 10.1604 43.7557 10.1517C43.033 10.1433 42.6431 10.3018 42.0607 10.5385C41.9592 10.5798 41.8519 10.6234 41.7359 10.6689C41.5324 10.7484 41.3452 10.8381 41.1525 10.9306C40.6438 11.1745 40.0966 11.4369 39.1099 11.5761L39.1085 11.1462L38.5645 10.9218V15.2431H37.2626V10.9214L36.719 11.1457L36.7175 11.5756C35.7307 11.4363 35.1832 11.1737 34.6745 10.9297C34.4821 10.8374 34.2953 10.7478 34.0924 10.6685C33.9771 10.6233 33.8703 10.5799 33.7693 10.5388C33.1856 10.3017 32.7948 10.1429 32.0709 10.1513C31.2799 10.16 29.4793 10.6005 29.5843 13.2241C29.654 14.9928 30.3981 16.0128 30.3981 16.0128L31.3567 15.7216C31.3352 15.7847 31.3138 15.8463 31.2931 15.906C31.2714 15.9684 31.2505 16.0286 31.231 16.0862V16.0874H31.9838ZM32.736 16.0874C32.5595 16.2112 32.386 16.8889 33.0217 17.4069C33.1462 17.1198 33.289 17.0909 33.4222 17.1198C33.5554 17.1487 33.66 17.2196 33.7322 17.4902L34.6282 17.4213C34.6423 17.187 34.7473 17.0336 34.9564 16.9767C35.1473 16.9416 35.3187 17.0336 35.4619 17.2539C35.593 16.867 35.6159 16.3695 35.4827 16.0878L35.7886 16.0874H35.4822C35.4212 15.9583 35.327 15.8738 35.1951 15.8663C35.0121 15.8564 34.8502 15.9596 34.7236 16.0887L34.7217 16.0886C34.6218 16.1948 34.54 16.3164 34.4796 16.4487C34.507 16.3196 34.5302 16.1992 34.5485 16.0874L34.5481 16.0874C34.7207 15.0707 34.5692 14.6991 33.8227 14.0099C33.2194 14.4903 33.0676 15.2211 33.4075 16.0862L33.4089 16.0862C33.4624 16.2211 33.5268 16.358 33.6031 16.497C33.4209 16.2759 33.2678 16.1509 33.1396 16.0882L33.2067 16.0877L33.1392 16.0874C32.9785 16.0107 32.8553 16.0293 32.754 16.0779C32.7481 16.0803 32.7425 16.0835 32.7374 16.0874H32.736ZM43.0877 16.087L43.0859 16.087C43.0812 16.0828 43.0757 16.0796 43.0697 16.0775C42.9693 16.0293 42.8452 16.0103 42.6846 16.0895L42.6782 16.0894C42.5505 16.1551 42.3994 16.2796 42.221 16.497C42.2974 16.358 42.3613 16.2211 42.4148 16.0874C42.7568 15.2229 42.6053 14.4908 42.0015 14.0099C41.2549 14.6991 41.1034 15.0707 41.2761 16.0887C41.2947 16.201 41.3173 16.3206 41.3437 16.4487C41.2832 16.3156 41.2007 16.1935 41.0997 16.0874L41.1001 16.0874C40.9735 15.9596 40.8117 15.8564 40.6283 15.8663C40.4963 15.8738 40.4021 15.9583 40.3415 16.0887L40.3399 16.0887C40.2084 16.372 40.2311 16.8677 40.3622 17.2534C40.505 17.0332 40.676 16.9412 40.8673 16.9763C41.0773 17.0332 41.1819 17.1866 41.1956 17.4209L42.092 17.4898C42.1633 17.2192 42.2688 17.1478 42.4016 17.1194C42.5344 17.0909 42.6779 17.1194 42.802 17.4065C43.4369 16.8885 43.2643 16.2108 43.0877 16.087ZM36.7175 11.5756L36.7148 12.3681C35.9665 12.3366 35.2396 12.063 34.5244 11.7938C33.7964 11.5198 33.0806 11.2504 32.3668 11.2456C30.7558 11.2348 30.5367 12.85 30.5566 13.3475C30.5749 13.8449 30.6035 14.372 30.9372 15.0715C31.0036 14.669 31.2965 13.4526 31.7286 13.2423C32.9387 12.7444 34.1501 13.1656 34.1501 13.1656C35.5416 12.735 36.7136 12.735 36.7136 12.735L36.7148 12.3681C36.7155 12.1669 36.7168 11.7754 36.7175 11.5756ZM39.1099 11.5761L39.1124 12.3686C39.112 12.2672 39.1106 11.7943 39.1099 11.5761ZM39.1135 12.7354L39.1124 12.3686C39.8607 12.3372 40.5877 12.0635 41.303 11.7943C42.031 11.5203 42.7469 11.2508 43.4606 11.246C45.0713 11.2353 45.2908 12.8504 45.2713 13.3479C45.2526 13.8453 45.2244 14.3728 44.8903 15.0719C44.8239 14.6694 44.5662 13.453 44.0993 13.2427C42.8892 12.7449 41.6774 13.166 41.6774 13.166C40.2855 12.7354 39.1135 12.7354 39.1135 12.7354Z" fill="#646464" fill-opacity="0.7"/>
<path d="M44.3944 18.9474L44.2794 20.0619H31.5057L31.3912 18.9474C31.3912 18.9474 31.8058 19.3925 32.5308 19.3739C33.2549 19.3541 33.9081 18.8327 34.1937 18.4116C34.2514 18.3163 34.3323 18.3114 34.3945 18.4162C34.8332 19.0101 35.2241 19.4452 36.2911 19.4452C37.3037 19.4452 37.7158 18.8432 37.8704 18.6174C37.8788 18.6051 37.8865 18.5939 37.8934 18.584C37.8999 18.5934 37.9071 18.604 37.915 18.6155C38.0674 18.8398 38.479 19.4452 39.4941 19.4452C40.5614 19.4452 40.952 19.0101 41.3906 18.4162C41.4529 18.311 41.5338 18.3163 41.5915 18.4116C41.8778 18.8323 42.5302 19.3537 43.2548 19.3739C43.9794 19.3925 44.3944 18.9474 44.3944 18.9474Z" fill="#646464" fill-opacity="0.7"/>
<path d="M30.9064 22.3811C30.9064 22.8134 31.2775 23.1644 31.7348 23.1644H44.0499C44.5085 23.1644 44.8799 22.8138 44.8799 22.3811C44.8799 21.9485 44.5085 21.5979 44.0499 21.5979H31.7348C31.2779 21.5979 30.9064 21.9481 30.9064 22.3811Z" fill="#646464" fill-opacity="0.7"/>
<path d="M32.6026 20.3918V21.2828H31.5057L31.1252 20.8323L31.5057 20.3918H32.6026Z" fill="#646464" fill-opacity="0.7"/>
<path d="M34.5638 20.3514C34.0326 20.3514 33.6002 20.5696 33.6002 20.8381C33.6002 21.1062 34.0322 21.3236 34.5638 21.3236C35.0959 21.3236 35.5283 21.1062 35.5283 20.8381C35.5283 20.5696 35.0963 20.3514 34.5638 20.3514Z" fill="#646464" fill-opacity="0.7"/>
<path d="M43.183 20.3918V21.2828H44.2794L44.6604 20.8323L44.2794 20.3918H43.183Z" fill="#646464" fill-opacity="0.7"/>
<path d="M41.2221 20.3514C40.6888 20.3514 40.2585 20.5696 40.2585 20.8381C40.2585 21.1062 40.6888 21.3236 41.2221 21.3236C41.7537 21.3236 42.1858 21.1062 42.1858 20.8381C42.1858 20.5696 41.7537 20.3514 41.2221 20.3514Z" fill="#646464" fill-opacity="0.7"/>
<path d="M39.1035 20.3918H36.6816V21.2819H39.1035V20.3918Z" fill="#646464" fill-opacity="0.7"/>
<path d="M0.00634766 45.2399H75.6715V26.62H0.00634766V45.2399Z" fill="#646464" fill-opacity="0.7"/>
<path fill-rule="evenodd" clip-rule="evenodd" d="M24.6565 53.907H51.0201V45.24H50.3868V53.2706H25.2923V45.24H24.6565V53.907ZM24.6565 26.6201V3.22668H51.0201V26.6201H50.3868V3.86202H25.2923V26.6201H24.6565Z" fill="#646464" fill-opacity="0.7"/>
</g>
<path d="M13.9629 30.5654C14.9434 30.4977 15.8099 30.4639 16.5621 30.4639C18.65 30.4639 19.6939 31.1613 19.6939 32.556C19.6939 33.1477 19.5502 33.676 19.2628 34.1409C18.9754 34.6058 18.4809 34.9143 17.7793 35.0665L20.3152 39.3394H19.136L16.6509 35.1426H15.0153V39.3394H13.9629V30.5654ZM16.5621 30.5907C16.0719 30.5907 15.5563 30.6203 15.0153 30.6795V35.0158H16.8918C18.0837 34.965 18.6796 34.1536 18.6796 32.5814C18.6796 31.9389 18.5021 31.4487 18.147 31.1106C17.792 30.764 17.2637 30.5907 16.5621 30.5907ZM21.2609 30.5907V30.4639H23.5178V37.6657C23.5178 38.3335 23.3825 38.7815 23.112 39.0097C22.8415 39.2295 22.4316 39.3394 21.8821 39.3394C21.3412 39.3394 20.8594 39.2591 20.4367 39.0985L20.4748 38.997C20.8805 39.1576 21.2989 39.2379 21.73 39.2379C22.0174 39.2379 22.2076 39.1154 22.3006 38.8702C22.402 38.6251 22.4527 38.2278 22.4527 37.6784V30.5907H21.2609ZM33.76 30.9965C32.9908 30.7006 32.2638 30.5527 31.5791 30.5527C30.9029 30.5527 30.3746 30.6964 29.9942 30.9838C29.6139 31.2712 29.4237 31.6685 29.4237 32.1756C29.4237 32.7927 29.7449 33.2703 30.3873 33.6084C30.6747 33.7521 30.9874 33.8873 31.3256 34.0141C31.6721 34.1324 32.0187 34.2677 32.3652 34.4198C32.7118 34.572 33.0288 34.7453 33.3162 34.9397C33.6036 35.1341 33.836 35.4046 34.0135 35.7512C34.191 36.0893 34.2798 36.5246 34.2798 37.0571C34.2798 37.5812 34.1319 38.0292 33.836 38.4011C33.5402 38.773 33.1809 39.0266 32.7583 39.1618C32.3441 39.2886 31.8581 39.352 31.3002 39.352C30.2605 39.352 29.373 39.0942 28.6376 38.5786L28.701 38.4772C28.9799 38.6969 29.3392 38.8787 29.7787 39.0224C30.2267 39.1576 30.6831 39.2252 31.148 39.2252C31.8327 39.2252 32.416 39.0689 32.8978 38.7561C33.388 38.4349 33.6332 37.9658 33.6332 37.3487C33.6332 36.6725 33.312 36.1442 32.6695 35.7638C32.3822 35.5948 32.0652 35.4384 31.7186 35.2947C31.3805 35.151 31.0382 35.0031 30.6916 34.8509C30.345 34.6903 30.0281 34.5128 29.7407 34.3184C29.0982 33.8958 28.777 33.2956 28.777 32.518C28.777 31.9009 28.9841 31.4022 29.3983 31.0218C29.8125 30.633 30.4338 30.4386 31.2622 30.4386C32.099 30.4386 32.9485 30.5823 33.8107 30.8697L33.76 30.9965ZM35.3531 32.9998H36.2406V34.572C36.3843 34.1832 36.6506 33.8155 37.0394 33.4689C37.4282 33.1223 37.8678 32.9491 38.358 32.9491C40.0739 32.9491 40.9319 33.9549 40.9319 35.9667C40.9319 38.2489 39.8246 39.3901 37.61 39.3901C37.2127 39.3901 36.7562 39.2971 36.2406 39.1111V42.5091H35.3531V32.9998ZM38.3454 33.0505C37.8213 33.0505 37.3479 33.2787 36.9253 33.7352C36.5027 34.1832 36.2744 34.5889 36.2406 34.9524V38.997C36.7562 39.1914 37.2085 39.2886 37.5973 39.2886C39.2287 39.2886 40.0444 38.1771 40.0444 35.954C40.0444 34.0183 39.478 33.0505 38.3454 33.0505ZM44.9547 39.3901C44.0671 39.3901 43.3444 39.1365 42.7865 38.6293C42.2286 38.1222 41.9497 37.3403 41.9497 36.2837C41.9497 35.2271 42.2371 34.4072 42.8119 33.8239C43.3951 33.2407 44.1305 32.9491 45.0181 32.9491C45.9141 32.9491 46.641 33.2026 47.1989 33.7098C47.7568 34.217 48.0357 34.9989 48.0357 36.0555C48.0357 37.112 47.7441 37.932 47.1608 38.5152C46.5861 39.0985 45.8507 39.3901 44.9547 39.3901ZM45.0434 33.0505C44.401 33.0505 43.8685 33.3379 43.4458 33.9127C43.0232 34.479 42.8119 35.2736 42.8119 36.2964C42.8119 37.3107 43.0063 38.063 43.3951 38.5532C43.784 39.0435 44.2996 39.2886 44.942 39.2886C45.5844 39.2886 46.1169 39.0055 46.5396 38.4391C46.9622 37.8643 47.1735 37.0698 47.1735 36.0555C47.1735 35.0327 46.9791 34.2761 46.5903 33.7859C46.2015 33.2956 45.6858 33.0505 45.0434 33.0505ZM51.2187 33.545V33.2787C50.8383 33.4309 50.4917 33.7394 50.179 34.2043C49.8662 34.6607 49.7014 35.0918 49.6845 35.4976V39.3394H48.797V32.9998H49.6845V35.0158C49.8197 34.5255 50.0775 34.0648 50.4579 33.6337C50.8383 33.1942 51.2694 32.966 51.7512 32.9491H51.8019C51.971 32.9491 52.1104 33.0082 52.2203 33.1266C52.3387 33.2364 52.3978 33.3759 52.3978 33.545C52.3978 33.714 52.3387 33.8535 52.2203 33.9634C52.1104 34.0733 51.971 34.1282 51.8019 34.1282C51.6329 34.1282 51.4934 34.0733 51.3835 33.9634C51.2736 33.8535 51.2187 33.714 51.2187 33.545ZM53.2901 33.1012V32.9998H53.5564V31.7319H54.4439V32.9998H56.3838V33.1012H54.4439V37.7164C54.4439 38.2659 54.5031 38.6631 54.6214 38.9083C54.7482 39.1534 55.006 39.276 55.3949 39.276C55.7922 39.276 56.1937 39.1957 56.5994 39.0351L56.6374 39.1365C56.2148 39.2971 55.7288 39.3774 55.1793 39.3774C54.6383 39.3774 54.2326 39.2675 53.9621 39.0477C53.6916 38.8195 53.5564 38.3715 53.5564 37.7037V33.1012H53.2901ZM61.1667 33.4435C61.0314 33.3337 60.8117 33.2407 60.5074 33.1646C60.2115 33.0885 59.9875 33.0505 59.8354 33.0505C59.6832 33.0505 59.5945 33.0505 59.5691 33.0505C59.1126 33.0589 58.783 33.1773 58.5801 33.4055C58.3773 33.6253 58.2758 33.8746 58.2758 34.1536C58.2758 34.4325 58.3646 34.6692 58.5421 34.8636C58.7196 35.0496 58.9394 35.1975 59.2014 35.3074C59.4719 35.4088 59.7593 35.5272 60.0636 35.6624C60.3763 35.7976 60.6637 35.9371 60.9258 36.0808C61.1963 36.2161 61.4203 36.4189 61.5978 36.6894C61.7753 36.9514 61.864 37.2811 61.864 37.6784C61.864 38.0757 61.7246 38.4138 61.4456 38.6927C61.1667 38.9717 60.8539 39.1576 60.5074 39.2506C60.1692 39.3436 59.8015 39.3901 59.4043 39.3901C58.5421 39.3901 57.8954 39.1999 57.4644 38.8195L57.5404 38.7434C57.7095 38.904 57.9588 39.0351 58.2885 39.1365C58.6266 39.2379 58.952 39.2886 59.2648 39.2886C59.7635 39.2886 60.1735 39.1534 60.4947 38.8829C60.8243 38.604 60.9892 38.2616 60.9892 37.8559C60.9892 37.4417 60.8666 37.112 60.6215 36.8669C60.3763 36.6133 60.0763 36.4189 59.7212 36.2837C59.3747 36.14 59.0239 36.0005 58.6689 35.8653C58.3139 35.7216 58.0138 35.5272 57.7687 35.282C57.5235 35.0284 57.401 34.7368 57.401 34.4072C57.401 34.0775 57.477 33.8112 57.6292 33.6084C57.7813 33.3971 57.9842 33.2491 58.2378 33.1646C58.6689 33.0209 59.1 32.9491 59.5311 32.9491C60.258 32.9491 60.8243 33.0843 61.2301 33.3548L61.1667 33.4435Z" fill="#A4A4A4"/>
<defs>
<clipPath id="clip0_1_1155">
<rect width="75.6788" height="54.6789" fill="white"/>
</clipPath>
</defs>
</svg>
