<svg width="83" height="83" viewBox="0 0 83 83" fill="none" xmlns="http://www.w3.org/2000/svg">
<g clip-path="url(#clip0_1_1149)">
<path fill-rule="evenodd" clip-rule="evenodd" d="M27.8372 42.7797C27.6619 42.7402 27.4089 42.6044 27.2142 42.4485C25.4428 40.7552 27.7006 38.7698 30.309 37.6217V34.3516C30.932 34.7216 31.2431 34.7602 31.2822 34.8187L33.2676 32.8332L32.6055 31.1593C38.445 29.1352 40.7999 28.3567 45.5488 27.5584L44.693 26.7798L46.0945 25.9626C49.2868 27.0333 52.2648 27.3057 51.7591 29.9726C51.8948 28.1818 49.6559 27.481 46.192 26.5079L45.5493 26.9165L46.8146 27.9674C41.1311 28.9603 37.6278 30.0504 33.4816 31.4906L34.0268 32.9694L31.9632 35.0133C32.3138 35.1108 35.9341 36.3371 39.7296 33.69C39.749 33.6706 39.8074 33.6509 39.8074 33.6118C39.6712 33.4171 39.4375 33.2418 39.1264 32.9497C40.2164 33.0279 40.9365 34.0006 40.8003 35.0129H40.2942C40.3526 34.7014 40.2748 34.3319 40.1386 34.0981C37.2385 36.2391 33.8322 36.5506 30.932 35.5388V38.069C29.5107 38.5554 27.0003 40.1129 27.0196 41.6115C27.1167 42.3316 27.4866 42.5851 27.8372 42.7797Z" fill="#A4A4A4"/>
<path fill-rule="evenodd" clip-rule="evenodd" d="M39.6905 42.1177C36.5566 43.7332 33.5589 44.9985 28.8877 45.1738C22.873 45.0565 21.9389 41.047 24.8 36.8622C27.4858 32.6387 31.7685 28.804 38.6 26.41C40.5464 25.7286 43.486 24.9114 46.2693 24.8916C50.2982 24.8529 54.2102 26.1178 53.958 29.9525C53.8214 32.9111 49.5592 37.0959 47.3203 40.0936C46.3467 41.398 46.1916 42.2346 47.8264 42.1757C53.7634 41.7873 59.1938 39.7237 64.1769 37.5827C60.8286 39.8599 43.2725 48.5599 43.175 42.6238C43.1943 41.8844 43.5642 41.0861 44.1284 40.2491C44.6929 39.4122 45.4719 38.5168 46.2698 37.602C47.4573 36.2396 50.4151 32.9695 51.408 31.0039C53.0819 27.3058 49.325 27.1108 46.0945 25.9627L44.6929 26.7799L45.5295 27.5585C40.7999 28.3563 38.4445 29.1349 32.6051 31.1594L33.2672 32.8333L31.2817 34.8187C31.2426 34.7603 30.9316 34.7216 30.3086 34.3517V37.6218C27.7006 38.7698 25.4423 40.7553 27.2138 42.4485C27.4084 42.6045 27.6615 42.7407 27.8368 42.7798H27.817C31.0291 44.5899 39.7098 42.1177 39.6905 42.1177ZM19.6811 50.7211V49.2031H21.9003V50.7211H19.6811ZM19.7786 56.9687V51.5585H21.8418V56.9687H19.7786ZM66.1623 52.2004C67.2523 52.2004 68.1477 53.0958 68.1477 54.1858C68.1482 54.4467 68.0972 54.7051 67.9976 54.9462C67.898 55.1873 67.7518 55.4064 67.5674 55.5909C67.3829 55.7753 67.1638 55.9215 66.9227 56.0211C66.6816 56.1207 66.4232 56.1717 66.1623 56.1712C65.901 56.1734 65.6418 56.1235 65.3999 56.0245C65.1581 55.9255 64.9383 55.7794 64.7535 55.5946C64.5687 55.4098 64.4226 55.19 64.3236 54.9482C64.2246 54.7063 64.1747 54.4471 64.1769 54.1858C64.1764 53.9249 64.2274 53.6665 64.327 53.4254C64.4266 53.1843 64.5728 52.9652 64.7573 52.7808C64.9417 52.5963 65.1608 52.4501 65.4019 52.3505C65.643 52.2509 65.9014 52.1999 66.1623 52.2004ZM66.1623 57.1053C67.7585 57.1053 69.0625 55.8013 69.0625 54.1858C69.0625 52.5896 67.7585 51.2856 66.1623 51.2856C64.5468 51.2856 63.2428 52.5896 63.2428 54.1858C63.2423 54.5693 63.3175 54.9492 63.464 55.3037C63.6105 55.6581 63.8256 55.9801 64.0968 56.2513C64.368 56.5225 64.69 56.7376 65.0445 56.8841C65.3989 57.0306 65.7788 57.1058 66.1623 57.1053ZM55.5546 56.9687H56.4693V56.1321H55.5546V56.9687ZM62.5029 56.2688C62.2108 56.5214 61.6075 57.1053 60.4788 57.1053C58.9995 57.1053 57.5787 55.9371 57.5787 54.1858C57.5787 52.4539 58.9995 51.2856 60.4788 51.2856C61.5495 51.2856 62.2108 51.8695 62.5029 52.1222C62.3276 52.3555 62.1721 52.8423 62.0943 53.0562C61.5495 52.3168 60.8874 52.2004 60.4788 52.2004C59.3888 52.2004 58.4934 53.1151 58.4934 54.1858C58.4934 55.2758 59.3888 56.1906 60.4788 56.1906C61.0821 56.1906 61.6664 55.9177 62.1137 55.3338C62.2495 55.8206 62.4054 56.0935 62.5029 56.2688ZM70.3665 56.9687V51.5585H71.1837V52.3172C71.3551 52.0509 71.589 51.8306 71.8651 51.6753C72.1619 51.5072 72.4976 51.4198 72.8387 51.4218C73.228 51.4218 73.5588 51.5194 73.8114 51.6753C74.0649 51.8498 74.2596 52.0839 74.3571 52.3761C74.785 51.7527 75.35 51.4218 76.031 51.4218C76.5565 51.4218 76.9844 51.5778 77.2572 51.87C77.5494 52.1815 77.7045 52.6287 77.7045 53.2513V56.9687H76.7898V53.5632C76.7898 53.1933 76.7511 52.9205 76.6923 52.7654C76.6358 52.6039 76.5259 52.4666 76.3808 52.3761C76.211 52.2721 76.0153 52.2181 75.8162 52.2201C75.4471 52.2201 75.1356 52.3559 74.8821 52.6094C74.6286 52.8629 74.4929 53.2715 74.4929 53.8163V56.9691H73.5781V53.4464C73.5781 53.0378 73.4999 52.7263 73.3642 52.5316C73.2082 52.337 72.9556 52.2201 72.6239 52.2201C72.3712 52.2201 72.1379 52.2983 71.9046 52.4341C71.6898 52.5707 71.5347 52.7654 71.4372 53.018C71.3396 53.2908 71.2812 53.6608 71.2812 54.1669V56.9687H70.3665ZM77.3543 50.3709V49.3389H76.9651V49.2031H77.8992V49.3389H77.5095V50.3709H77.3543ZM78.0358 50.3709V49.2027H78.2691L78.5612 50.0392C78.5806 50.1174 78.5999 50.1759 78.6192 50.2145C78.6192 50.1759 78.6394 50.0981 78.6781 50.0199L78.9509 49.2027H79.1649V50.3709H79.0089V49.3973L78.6781 50.3709H78.523L78.1917 49.378V50.3709H78.0358ZM51.6808 56.1712C51.4669 56.4625 51.1352 56.6967 50.7072 56.8518C50.6131 56.8933 50.5153 56.926 50.4151 56.9493C50.0451 57.0477 49.6365 57.086 49.1699 57.086C48.4885 57.086 47.963 56.9493 47.5931 56.658C47.2038 56.3852 47.0285 55.9766 47.0285 55.4511C47.0285 55.1199 47.1067 54.8277 47.2425 54.5751C47.3791 54.3216 47.5931 54.1076 47.8659 53.9323C48.0799 53.7965 48.3914 53.699 48.7807 53.6401C49.1304 53.6015 49.6761 53.5628 50.4155 53.5628H51.6413V53.4846V53.4064C51.6413 53.1143 51.564 52.9003 51.3887 52.7443C51.2134 52.5892 50.9607 52.511 50.629 52.511H50.4151C50.1422 52.5304 49.9476 52.5892 49.7925 52.667C49.6172 52.7645 49.5003 52.939 49.4617 53.1538H47.3787C47.4367 52.5699 47.7486 52.1411 48.2741 51.8489C48.7609 51.5963 49.481 51.4597 50.4146 51.4403C50.4928 51.421 50.5706 51.421 50.6681 51.421C51.68 51.421 52.4396 51.5963 52.9062 51.9271C53.393 52.2777 53.6456 52.7838 53.6456 53.5039V56.2481C53.6456 56.4041 53.6456 56.5403 53.6658 56.6374C53.6852 56.7547 53.7045 56.8716 53.744 56.9682H51.8166C51.7724 56.8617 51.7397 56.7508 51.7191 56.6374C51.6956 56.5157 51.6827 56.3922 51.6804 56.2683V56.1712H51.6808ZM50.4155 55.9177C50.7661 55.8791 51.0583 55.782 51.2722 55.5869C51.5055 55.3923 51.6413 55.0808 51.6413 54.6722V54.5557H51.4669C51.0583 54.5557 50.7072 54.5557 50.4155 54.5944C50.1643 54.6084 49.9158 54.654 49.6761 54.7302C49.3448 54.8466 49.1893 55.0417 49.1893 55.3141C49.1893 55.5087 49.2675 55.6647 49.4419 55.7622C49.6172 55.8589 49.8707 55.9173 50.2204 55.9173L50.4155 55.9177ZM44.1872 54.108C44.1872 53.6212 44.0515 53.232 43.7786 52.9398C43.5058 52.6476 43.1561 52.5119 42.7079 52.5119H42.6886C42.2018 52.5119 41.8319 52.6476 41.5788 52.9398C41.3258 53.2126 41.1896 53.6406 41.1896 54.1858C41.1896 54.7113 41.3258 55.1199 41.5788 55.412C41.8508 55.7042 42.2018 55.84 42.6693 55.84H42.6886C43.1561 55.84 43.5251 55.6849 43.7786 55.3927C44.051 55.0812 44.1872 54.6524 44.1872 54.108ZM42.6882 51.5189C42.9408 51.4408 43.233 51.4214 43.5247 51.4214C44.3815 51.4214 45.0629 51.6749 45.5488 52.181C46.0558 52.6678 46.3084 53.3493 46.3084 54.2245C46.3084 55.1199 46.0558 55.8206 45.5883 56.3268C45.1015 56.8329 44.4201 57.0864 43.5642 57.0864C43.2519 57.0864 42.9602 57.0477 42.6882 56.9691C42.5316 56.9315 42.3809 56.8728 42.2401 56.7947C41.8315 56.6 41.5006 56.3272 41.2085 55.9581V56.1132C41.2085 56.2692 41.2085 56.4054 41.1891 56.5412C41.1891 56.6778 41.1698 56.8333 41.1505 56.9691H39.0675C39.0868 56.7358 39.1066 56.5218 39.1259 56.3272C39.1448 56.1132 39.1448 55.9186 39.1448 55.7442V49.2035H41.208V52.337C41.5195 52.0255 41.8706 51.7922 42.259 51.6556C42.3965 51.5971 42.5322 51.5383 42.6882 51.5189ZM35.7781 56.1712C35.5448 56.4625 35.2328 56.6967 34.7856 56.8518C34.6938 56.8991 34.5952 56.932 34.4934 56.9493C34.1432 57.0477 33.7149 57.086 33.2672 57.086C32.5857 57.086 32.0409 56.9493 31.671 56.658C31.3011 56.3852 31.1064 55.9766 31.1064 55.4511C31.1064 55.1199 31.1842 54.8277 31.3402 54.5751C31.4764 54.3216 31.6903 54.1076 31.9627 53.9323C32.1771 53.7965 32.4689 53.699 32.8581 53.6401C33.2281 53.6015 33.7729 53.5628 34.4934 53.5628H35.7196C35.7196 53.5426 35.7196 53.5039 35.7394 53.4846V53.4064C35.7394 53.1143 35.6419 52.9003 35.4863 52.7443C35.311 52.5892 35.058 52.511 34.7276 52.511H34.4938C34.2408 52.5304 34.0268 52.5892 33.8906 52.667C33.696 52.7645 33.5984 52.939 33.5593 53.1538H31.457C31.5352 52.5699 31.827 52.1411 32.3718 51.8489C32.8581 51.5963 33.5589 51.4597 34.4934 51.4403C34.5909 51.421 34.6683 51.421 34.7465 51.421C35.7781 51.421 36.5175 51.5963 37.0043 51.9271C37.4911 52.2777 37.7248 52.7838 37.7248 53.5039V56.2481C37.7248 56.4041 37.7442 56.5403 37.7442 56.6374C37.7635 56.7547 37.8026 56.8716 37.8417 56.9682H35.9147C35.8567 56.8716 35.8369 56.7551 35.8176 56.6374C35.7983 56.521 35.7785 56.4041 35.7785 56.2683V56.1712H35.7781ZM34.4938 55.9177C34.8633 55.8791 35.1555 55.782 35.3506 55.5869C35.6032 55.3923 35.7201 55.0808 35.7201 54.6722V54.5557H35.5645C35.1555 54.5557 34.786 54.5557 34.4938 54.5944C34.2489 54.608 34.0068 54.6537 33.7737 54.7302C33.4429 54.8466 33.2676 55.0417 33.2676 55.3141C33.2676 55.5087 33.3651 55.6647 33.5207 55.7622C33.696 55.8589 33.949 55.9173 34.2992 55.9173L34.4938 55.9177ZM28.2651 54.108C28.2651 53.6212 28.1487 53.232 27.8759 52.9398C27.603 52.6476 27.2529 52.5119 26.8052 52.5119H26.7661C26.2991 52.5119 25.9291 52.6476 25.6761 52.9398C25.4037 53.2126 25.2868 53.6406 25.2868 54.1858C25.2868 54.7113 25.4037 55.1199 25.6761 55.412C25.9287 55.7042 26.2991 55.84 26.7661 55.84C27.2525 55.84 27.6224 55.6849 27.8759 55.3927C28.1483 55.0812 28.2651 54.6524 28.2651 54.108ZM26.7661 51.5189C27.0385 51.4408 27.3113 51.4214 27.6224 51.4214C28.4791 51.4214 29.1408 51.6749 29.6469 52.181C30.1333 52.6678 30.3868 53.3493 30.3868 54.2245C30.3868 55.1199 30.153 55.8206 29.6662 56.3268C29.1799 56.8329 28.5182 57.0864 27.6615 57.0864C27.35 57.0864 27.0578 57.0477 26.7661 56.9691C26.6118 56.9248 26.462 56.8664 26.3184 56.7947C25.9287 56.6 25.5785 56.3272 25.3061 55.9581V56.1132C25.3061 56.2692 25.2868 56.4054 25.2868 56.5412C25.2675 56.6778 25.2481 56.8333 25.2284 56.9691H23.1458C23.183 56.7571 23.2025 56.5424 23.2043 56.3272C23.2236 56.1132 23.2434 55.9186 23.2434 55.7442V49.2035H25.3066V52.337C25.618 52.0255 25.9682 51.7922 26.3382 51.6556C26.4743 51.5971 26.6299 51.5383 26.7661 51.5189ZM10.7078 49.2031H12.1875L15.9826 56.9687H13.4915L12.8105 55.3927H8.58615L7.86606 56.9687H5.53003L9.55932 49.2031H10.7078ZM10.7078 53.8941H12.09L10.7662 50.9157L10.7074 51.0515L9.30625 53.8936H10.7078V53.8941ZM16.3337 56.9687V49.2031H18.3964V56.9687H16.3337Z" fill="#646464"/>
</g>
<defs>
<clipPath id="clip0_1_1149">
<rect width="82.8183" height="82.8183" fill="white"/>
</clipPath>
</defs>
</svg>
